<svg xmlns="http://www.w3.org/2000/svg" xmlns:xlink="http://www.w3.org/1999/xlink" width="166.082" height="47.898" viewBox="0 0 166.082 47.898">
  <defs>
    <linearGradient id="linear-gradient" y1="0.5" x2="1" y2="0.5" gradientUnits="objectBoundingBox">
      <stop offset="0" stop-color="#4c74b9"/>
      <stop offset="1" stop-color="#4ac7f0"/>
    </linearGradient>
    <linearGradient id="linear-gradient-7" x1="0" y1="0.5" x2="1" y2="0.5" xlink:href="#linear-gradient"/>
  </defs>
  <g id="Layer_1" transform="translate(-97.6 -695.11)">
    <g id="Group_2" data-name="Group 2" transform="translate(97.6 695.11)">
      <g id="XMLID_1571_" transform="translate(0 0)">
        <g id="XMLID_2087_">
          <path id="XMLID_2090_" d="M107.178,735.143a20.876,20.876,0,1,1,29.143-29.89,26.987,26.987,0,0,1,6.915,3.635,23.952,23.952,0,1,0-32.1,31.744A10.488,10.488,0,0,1,107.178,735.143Z" transform="translate(-97.6 -695.11)" fill="url(#linear-gradient)"/>
          <path id="XMLID_2089_" d="M191.092,814.841c-16.442-7.634-34.672-1.06-40.882,11.474l0,0c8.51-9.756,22.544-8.777,31.047-7a25.034,25.034,0,0,1,6.707-2.909,20.886,20.886,0,0,1-18.985,29.571h-.073a7.983,7.983,0,0,1-7.9-8.806,20.555,20.555,0,0,1,.873-4.223c1.977-.577,6.231-.631,8.9-.6a25.076,25.076,0,0,1,2.769-5.549,64.366,64.366,0,0,0-9.059-.178,52.768,52.768,0,0,1,3.172-5.277,31.012,31.012,0,0,0-8.754,2.026s-7.721,17.139,2.339,23.495a23.962,23.962,0,0,0,29.85-32.013Z" transform="translate(-145.094 -800.255)" fill="url(#linear-gradient)"/>
        </g>
      </g>
      <g id="Group_1" data-name="Group 1" transform="translate(50.636 14.368)">
        <path id="Path_1" data-name="Path 1" d="M622.1,864.384H618.28V848.818a3.476,3.476,0,0,1,3.592-3.338h11.771l-1.784,3.287H622.1v4.612H631.1v3.287H622.1Z" transform="translate(-618.28 -845.224)" fill="url(#linear-gradient)"/>
        <path id="Path_2" data-name="Path 2" d="M797.9,861.1h9.758l1.784,3.287H797.672a3.476,3.476,0,0,1-3.592-3.338v-12.23a3.476,3.476,0,0,1,3.592-3.338h11.771l-1.784,3.287H797.9v4.612H806.9v3.287H797.9Z" transform="translate(-776.984 -845.224)" fill="url(#linear-gradient)"/>
        <path id="Path_3" data-name="Path 3" d="M984.212,845.48h5.146a7.254,7.254,0,0,1,7.312,7.185V857.2a7.254,7.254,0,0,1-7.312,7.185H980.62V848.818A3.476,3.476,0,0,1,984.212,845.48Zm8.638,7.185a3.713,3.713,0,0,0-3.49-3.9h-4.917V861.1h4.917a3.714,3.714,0,0,0,3.49-3.9Z" transform="translate(-945.383 -845.224)" fill="url(#linear-gradient)"/>
        <path id="Path_4" data-name="Path 4" d="M1165.022,859.488l2.038-3.287h5.1l-3.235-9.275-5.274,15.083h-4.077l5.554-15.823c.662-1.886,1.809-3.338,3.8-3.338s3.133,1.452,3.8,3.338l5.554,15.823h-4.077l-.892-2.523h-8.281Z" transform="translate(-1106.93 -842.85)" fill="url(#linear-gradient)"/>
        <path id="Path_5" data-name="Path 5" d="M1377.432,864.384h-3.822V848.818a3.476,3.476,0,0,1,3.592-3.338h5.146c4.025,0,7.312,2.446,7.312,6.42v.714a6.154,6.154,0,0,1-4.688,6.038l5.121,5.733h-4.764l-4.714-5.351h-2.93l2.038-3.287h2.624c1.936,0,3.49-.994,3.49-3.133V851.9c0-2.141-1.554-3.133-3.49-3.133h-4.917v15.617Z" transform="translate(-1300.154 -845.224)" fill="url(#linear-gradient-7)"/>
        <path id="Path_6" data-name="Path 6" d="M1576.552,845.48v18.905h-3.822V845.48Z" transform="translate(-1479.91 -845.224)" fill="url(#linear-gradient)"/>
        <path id="Path_7" data-name="Path 7" d="M1647.9,845.48h2.548a9.509,9.509,0,0,1,5.911,2.064l-3.312,2.548a3.36,3.36,0,0,0-2.6-1.325H1647.9c-1.784,0-3.235.942-3.235,2.114,0,2.9,11.949,1.733,11.949,8.1,0,2.981-3.287,5.4-7.312,5.4h-2.548c-1.987,0-4.841-.79-6.166-2.064l3.287-2.548a3.846,3.846,0,0,0,2.879,1.325h2.548c1.936,0,3.49-.942,3.49-2.114,0-3.261-11.949-1.784-11.949-8.1C1640.845,847.9,1644,845.48,1647.9,845.48Z" transform="translate(-1541.17 -845.224)" fill="url(#linear-gradient)"/>
      </g>
    </g>
  </g>
</svg>
